<svg xmlns="http://www.w3.org/2000/svg" xmlns:xlink="http://www.w3.org/1999/xlink" id="body_1" preserveAspectRatio="xMinYMin meet" viewBox="0 0 793 1123"><defs><clipPath id="1"><path id="" clip-rule="evenodd" transform="matrix(1 0 0 1 0 0)" d="M0 842L0 -0.8800049L0 -0.8800049L595.92 -0.8800049L595.92 -0.8800049L595.92 842L595.92 842L0 842z" /></clipPath><clipPath id="2"><path id="" clip-rule="evenodd" transform="matrix(1 0 0 1 0 0)" d="M0 -0.8800049L594.9999 -0.8800049L594.9999 -0.8800049L594.9999 841.1199L594.9999 841.1199L0 841.1199z" /></clipPath><clipPath id="3"><path id="" clip-rule="evenodd" transform="matrix(1 0 0 1 0 0)" d="M0 -0.8800049L594.9999 -0.8800049L594.9999 -0.8800049L594.9999 841.1199L594.9999 841.1199L0 841.1199z" /></clipPath><clipPath id="4"><path id="" clip-rule="evenodd" transform="matrix(1 0 0 1 0 0)" d="M0 21.69507L591.0345 21.69507L591.0345 21.69507L591.0345 841.1199L591.0345 841.1199L0 841.1199z" /></clipPath><clipPath id="5"><path id="" clip-rule="evenodd" transform="matrix(1 0 0 1 0 0)" d="M30.02004 146.0981L561.2547 146.0981L561.2547 146.0981L561.2547 656.679L561.2547 656.679L30.02004 656.679z" /></clipPath><clipPath id="6"><path id="" clip-rule="evenodd" transform="matrix(1 0 0 1 0 0)" d="M0 -0.8800049L594.9999 -0.8800049L594.9999 -0.8800049L594.9999 841.1199L594.9999 841.1199L0 841.1199z" /></clipPath><clipPath id="7"><path id="" clip-rule="evenodd" transform="matrix(1 0 0 1 0 0)" d="M30.02004 26.97858L561.2547 26.97858L561.2547 26.97858L561.2547 134.0901L561.2547 134.0901L30.02004 134.0901z" /></clipPath><clipPath id="8"><path id="" clip-rule="evenodd" transform="matrix(1 0 0 1 0 0)" d="M67.96537 295.718L158.746 295.718L158.746 295.718L158.746 337.7461L158.746 337.7461L67.96537 337.7461z" /></clipPath><clipPath id="9"><path id="" clip-rule="evenodd" transform="matrix(1 0 0 1 0 0)" d="M0 -0.8800049L594.9999 -0.8800049L594.9999 -0.8800049L594.9999 841.1199L594.9999 841.1199L0 841.1199z" /></clipPath><clipPath id="10"><path id="" clip-rule="evenodd" transform="matrix(1 0 0 1 0 0)" d="M67.72521 169.3937L158.5058 169.3937L158.5058 169.3937L158.5058 211.4218L158.5058 211.4218L67.72521 211.4218z" /></clipPath><clipPath id="11"><path id="" clip-rule="evenodd" transform="matrix(1 0 0 1 0 0)" d="M0 -0.8800049L594.9999 -0.8800049L594.9999 -0.8800049L594.9999 841.1199L594.9999 841.1199L0 841.1199z" /></clipPath><clipPath id="12"><path id="" clip-rule="evenodd" transform="matrix(1 0 0 1 0 0)" d="M197.6519 90.14075L213.5025 90.14075L213.5025 90.14075L213.5025 100.2275L213.5025 100.2275L197.6519 100.2275z" /></clipPath><clipPath id="13"><path id="" clip-rule="evenodd" transform="matrix(1 0 0 1 0 0)" d="M382.3352 87.97931L393.3826 87.97931L393.3826 87.97931L393.3826 102.3889L393.3826 102.3889L382.3352 102.3889z" /></clipPath><clipPath id="14"><path id="" clip-rule="evenodd" transform="matrix(1 0 0 1 0 0)" d="M0 -0.8800049L594.9999 -0.8800049L594.9999 -0.8800049L594.9999 841.1199L594.9999 841.1199L0 841.1199z" /></clipPath><clipPath id="15"><path id="" clip-rule="evenodd" transform="matrix(1 0 0 1 0 0)" d="M274.9836 652.8364L474.5568 652.8364L474.5568 652.8364L474.5568 655.7183L474.5568 655.7183L274.9836 655.7183z" /></clipPath><clipPath id="16"><path id="" clip-rule="evenodd" transform="matrix(1 0 0 1 0 0)" d="M558.6129 365.3645L561.735 365.3645L561.735 365.3645L561.735 592.5562L561.735 592.5562L558.6129 592.5562z" /></clipPath><clipPath id="17"><path id="" clip-rule="evenodd" transform="matrix(1 0 0 1 0 0)" d="M493.2893 605.5248L560.294 605.5248L560.294 605.5248L560.294 656.1986L560.294 656.1986L493.2893 656.1986z" /></clipPath><clipPath id="18"><path id="" clip-rule="evenodd" transform="matrix(1 0 0 1 0 0)" d="M56.19752 122.8026L529.0732 122.8026L529.0732 122.8026L529.0732 152.5825L529.0732 152.5825L56.19752 152.5825z" /></clipPath><clipPath id="19"><path id="" clip-rule="evenodd" transform="matrix(1 0 0 1 0 0)" d="M200.2937 57.95929L214.9435 57.95929L214.9435 57.95929L214.9435 71.40826L214.9435 71.40826L200.2937 71.40826z" /></clipPath><clipPath id="20"><path id="" clip-rule="evenodd" transform="matrix(1 0 0 1 0 0)" d="M0 -0.8800049L594.9999 -0.8800049L594.9999 -0.8800049L594.9999 841.1199L594.9999 841.1199L0 841.1199z" /></clipPath></defs><g transform="matrix(1.333333 0 0 1.333333 0 0)"><g clip-path="url(#1)"><g clip-path="url(#2)"><path id="1" transform="matrix(1 0 0 -1 0 842)" d="M0 842.88L595.8378 842.88L595.8378 0.397583L0 0.397583z" stroke="none" fill="#FFFFFF" fill-rule="nonzero" /></g><g clip-path="url(#3)"><path id="2" transform="matrix(1 0 0 -1 0 842)" d="M0 842.88L595.5976 842.88L595.5976 0.397583L0 0.397583z" stroke="none" fill="#FFFFFF" fill-rule="nonzero" /></g><g clip-path="url(#4)"><g transform="matrix(0.4179877 0 0 0.418014 0.120051 21.56006)"><g transform="matrix(1 0 0 1 0 0)"><image x="0" y="0" xlink:href="img_01.png" width="1414" height="2000" /></g></g></g><g clip-path="url(#5)"><path id="4" transform="matrix(1 0 0 -1 0 842)" d="M236.7861 187.5857L36.11459 187.5857C 33.99229 187.5857 32.27202 189.306 32.27202 191.4283L32.27202 191.4283L32.27202 689.6577C 32.27202 691.78 33.99229 693.5002 36.11459 693.5002L36.11459 693.5002L555.0458 693.5002C 557.1678 693.5002 558.8883 691.78 558.8883 689.6577L558.8883 689.6577L558.8883 528.4777" stroke="#000000" stroke-width="1.921283" stroke-linecap="round" fill="none" /></g><g clip-path="url(#6)"><path id="6" transform="matrix(1 0 0 -1 0 842)" d="M83.51719 620.7028L83.51719 615.0312C 83.51719 613.89 83.86301 613.5787 85.10801 613.5787L85.10801 613.5787L87.42507 613.5787C 88.70465 613.5787 88.96979 614.2127 89.09659 616.3915C 88.85451 616.4606 88.49715 616.6105 88.28965 616.7719C 88.19743 614.7891 88.09368 614.3856 87.37896 614.3856L87.37896 614.3856L85.17717 614.3856C 84.5201 614.3856 84.38176 614.4894 84.38176 615.0197L84.38176 615.0197L84.38176 620.7028L84.38176 620.7028L83.51719 620.7028zM81.68428 619.8383C 81.5229 618.4895 81.14248 616.6912 80.64679 615.5154L80.64679 615.5154L81.49984 615.158C 81.97247 616.3799 82.32983 618.3281 82.51427 619.6769L82.51427 619.6769L81.68428 619.8383zM88.84298 619.8267C 89.48853 618.478 90.11102 616.6682 90.34158 615.4808L90.34158 615.4808L91.18311 615.8151C 90.94102 617.0024 90.307 618.7662 89.63839 620.1379L89.63839 620.1379L88.84298 619.8267zM84.05899 622.9277C 85.14259 622.1553 86.4798 621.0256 87.11382 620.3109L87.11382 620.3109L87.72479 620.9449C 87.06772 621.6711 85.69592 622.7548 84.62384 623.4926L84.62384 623.4926L84.05899 622.9277z" stroke="none" fill="#626262" fill-rule="nonzero" /><path id="27" transform="matrix(1 0 0 -1 0 842)" d="M309.2448 614.5355L309.2448 616.1263L313.2334 616.1263L313.2334 616.9678L309.2448 616.9678L309.2448 618.259L312.853 618.259L312.853 623.4464L304.7721 623.4464L304.7721 618.259L308.2881 618.259L308.2881 616.9678L304.4032 616.9678L304.4032 616.1263L308.2881 616.1263L308.2881 614.5355L303.6309 614.5355L303.6309 613.694L313.8559 613.694L313.8559 614.5355L309.2448 614.5355zM311.9423 619.0659L309.1872 619.0659L309.1872 620.4838L311.9423 620.4838L311.9423 619.0659zM311.9423 621.2446L309.1872 621.2446L309.1872 622.6395L311.9423 622.6395L311.9423 621.2446zM305.6482 622.6395L308.3457 622.6395L308.3457 621.2446L305.6482 621.2446L305.6482 622.6395zM305.6482 620.4838L308.3457 620.4838L308.3457 619.0659L305.6482 619.0659L305.6482 620.4838z" stroke="none" fill="#626262" fill-rule="nonzero" /><path id="31" transform="matrix(1 0 0 -1 0 842)" d="M359.5402 623.4695L353.2115 623.4695L353.2115 623.4695L353.2115 622.651L353.2115 622.651L358.6872 622.651L358.6872 622.651L358.6872 614.5009C 358.6872 614.2819 358.6065 614.2127 358.3875 614.2012C 358.1454 614.1782 357.3269 614.1782 356.4854 614.2127C 356.6237 613.9822 356.7505 613.6133 356.7966 613.3828C 357.8918 613.3712 358.5949 613.3828 358.9984 613.5211C 359.3904 613.671 359.5402 613.9246 359.5402 614.5009L359.5402 614.5009L359.5402 623.4695zM350.5717 623.4926C 351.1596 622.8239 351.8628 621.9017 352.174 621.3369L352.174 621.3369L352.8772 621.8325C 352.5314 622.3859 351.8167 623.2735 351.2287 623.9075L351.2287 623.9075L350.5717 623.4926zM350.1797 613.3597L351.0328 613.3597L351.0328 621.5789L350.1797 621.5789L350.1797 613.3597z" stroke="none" fill="#626262" fill-rule="nonzero" /><path id="52" transform="matrix(1 0 0 -1 0 842)" d="M148.7063 596.9904L142.2508 596.9904L142.2508 596.9904L142.2508 596.1719L142.2508 596.1719L146.101 596.1719L146.101 596.1719L146.101 591.4224C 146.101 591.2265 146.0319 591.1804 145.8129 591.1688C 145.5938 591.1573 144.833 591.1573 144.0145 591.1804C 144.1413 590.9383 144.2566 590.5809 144.2912 590.3504C 145.4209 590.3504 146.0665 590.3504 146.4584 590.4772C 146.8388 590.6155 146.9656 590.8807 146.9656 591.4109L146.9656 591.4109L146.9656 596.1719L146.9656 596.1719L148.7063 596.1719L148.7063 596.1719L148.7063 596.9904zM141.294 598.3852C 140.4986 597.0825 139.2536 595.7568 138.0662 594.9153C 138.2392 594.7424 138.5389 594.3735 138.6657 594.2006C 139.0922 594.5349 139.5303 594.95 139.9683 595.3995L139.9683 595.3995L139.9683 590.2812L139.9683 590.2812L140.8214 590.2812L140.8214 590.2812L140.8214 596.3448C 141.294 596.9096 141.732 597.4976 142.0894 598.0854L142.0894 598.0854L141.294 598.3852zM140.8214 600.8406C 140.245 600.0221 139.1383 598.9846 138.1815 598.3391C 138.3314 598.1777 138.5619 597.8434 138.6887 597.6589C 139.7147 598.3852 140.8905 599.5034 141.6398 600.5178L141.6398 600.5178L140.8214 600.8406zM148.372 600.1374L142.7465 600.1374L142.7465 599.3304L148.372 599.3304L148.372 600.1374z" stroke="none" fill="#626262" fill-rule="nonzero" /><path id="53" transform="matrix(1 0 0 -1 0 842)" d="M155.427 593.7164L159.2542 593.7164L159.2542 593.7164L159.2542 594.5004L159.2542 594.5004L155.427 594.5004L155.427 594.5004L155.427 596.2986L155.427 596.2986L160.015 596.2986L160.015 596.2986L160.015 597.1056L160.015 597.1056L155.427 597.1056L155.427 597.1056L155.427 598.6849L155.427 598.6849L159.1619 598.6849L159.1619 598.6849L159.1619 599.4803L159.1619 599.4803L155.427 599.4803L155.427 599.4803L155.427 600.8175L155.427 600.8175L154.5624 600.8175L154.5624 600.8175L154.5624 599.4803L154.5624 599.4803L151.0119 599.4803L151.0119 599.4803L151.0119 598.6849L151.0119 598.6849L154.5624 598.6849L154.5624 598.6849L154.5624 597.1056L154.5624 597.1056L150.0205 597.1056L150.0205 597.1056L150.0205 596.2986L150.0205 596.2986L154.5624 596.2986L154.5624 596.2986L154.5624 591.7222C 153.6287 592.0911 152.8793 592.7712 152.3952 593.924C 152.522 594.4542 152.6257 594.9845 152.6949 595.5032L152.6949 595.5032L151.8188 595.6185C 151.6459 593.924 151.0926 591.9182 149.7092 590.8461C 149.8822 590.7192 150.1934 590.4426 150.3433 590.2812C 151.1387 590.9268 151.692 591.872 152.0724 592.898C 153.2252 590.8807 155.0811 590.4541 157.5365 590.4541L157.5365 590.4541L160.0035 590.4541C 160.0496 590.6962 160.1994 591.0881 160.3147 591.2957C 159.819 591.2841 157.9515 591.2726 157.5711 591.2841C 156.8103 591.2841 156.0841 591.3302 155.427 591.4686L155.427 591.4686L155.427 593.7164z" stroke="none" fill="#626262" fill-rule="nonzero" /><path id="59" transform="matrix(1 0 0 -1 0 842)" d="M229.1696 598.0048L229.1696 598.8463L229.1696 598.8463L224.3626 598.8463L224.3626 598.8463L225.158 599.1921C 224.9966 599.6647 224.6393 600.3564 224.328 600.8982L224.328 600.8982L223.5096 600.5754C 223.8093 600.0452 224.1436 599.3074 224.2934 598.8463L224.2934 598.8463L219.2558 598.8463L219.2558 598.8463L219.2558 598.0048L219.2558 598.0048L222.3683 598.0048C 222.2415 595.3765 221.9418 592.4254 219.0022 590.9614C 219.2213 590.7999 219.4864 590.5002 219.6247 590.2697C 221.7919 591.4224 222.6565 593.3245 223.0254 595.3534L223.0254 595.3534L227.1293 595.3534C 226.9333 592.7596 226.7142 591.653 226.3684 591.3533C 226.2416 591.2495 226.0918 591.2265 225.8266 591.2265C 225.5269 591.2265 224.72 591.238 223.9015 591.3072C 224.0629 591.0766 224.1782 590.7308 224.2012 590.4772C 224.9736 590.4196 225.7229 590.408 226.1263 590.4311C 226.5759 590.4656 226.8411 590.5463 227.1177 590.8345C 227.5673 591.2841 227.7979 592.5291 228.0169 595.7684C 228.0399 595.8952 228.0515 596.1834 228.0515 596.1834L228.0515 596.1834L223.1522 596.1834C 223.2329 596.7944 223.279 597.4053 223.3136 598.0048L223.3136 598.0048L229.1696 598.0048z" stroke="none" fill="#626262" fill-rule="nonzero" /><path id="70" transform="matrix(1 0 0 -1 0 842)" d="M356.055 596.6675L356.055 597.5436L356.055 597.5436L351.2941 597.5436C 351.4554 598.7541 351.467 599.8953 351.4785 600.8175L351.4785 600.8175L350.5563 600.8175C 350.5448 599.9069 350.5563 598.7541 350.3834 597.5436L350.3834 597.5436L345.9913 597.5436L345.9913 597.5436L345.9913 596.6675L345.9913 596.6675L350.2451 596.6675C 349.7724 594.4888 348.6196 592.2755 345.7608 591.0305C 346.0029 590.8576 346.2795 590.5579 346.4063 590.3273C 349.2076 591.6069 350.4525 593.8202 351.0059 596.0335C 351.9166 593.4167 353.3806 591.3763 355.5939 590.3273C 355.7437 590.5809 356.032 590.9383 356.2394 591.1343C 354.0146 592.0449 352.516 594.1315 351.7091 596.6675L351.7091 596.6675L356.055 596.6675z" stroke="none" fill="#626262" fill-rule="nonzero" /><path id="74" transform="matrix(1 0 0 -1 0 842)" d="M397.5663 591.5031L397.5663 594.4312L397.5663 594.4312L401.2667 594.4312L401.2667 594.4312L401.2667 595.2612L401.2667 595.2612L397.5663 595.2612L397.5663 595.2612L397.5663 597.7742L397.5663 597.7742L401.6932 597.7742L401.6932 597.7742L401.6932 598.6157L401.6932 598.6157L397.5663 598.6157L397.5663 598.6157L397.5663 600.829L397.5663 600.829L396.6902 600.829L396.6902 600.829L396.6902 598.6157L396.6902 598.6157L394.35 598.6157C 394.6036 599.2036 394.8112 599.8261 394.9956 600.4601L394.9956 600.4601L394.131 600.6446C 393.6814 599.0077 392.9437 597.4169 391.9984 596.4024C 392.2289 596.2871 392.6093 596.0335 392.7708 595.8952C 393.2088 596.4139 393.6123 597.048 393.9811 597.7742L393.9811 597.7742L396.6902 597.7742L396.6902 597.7742L396.6902 595.2612L396.6902 595.2612L393.2664 595.2612L393.2664 595.2612L393.2664 594.4312L393.2664 594.4312L396.6902 594.4312L396.6902 594.4312L396.6902 591.5031L396.6902 591.5031L392.0215 591.5031L392.0215 591.5031L392.0215 590.6732L392.0215 590.6732L402.235 590.6732L402.235 590.6732L402.235 591.5031L402.235 591.5031L397.5663 591.5031z" stroke="none" fill="#626262" fill-rule="nonzero" /><path id="76" transform="matrix(1 0 0 -1 0 842)" d="M416.195 596.3448L416.195 595.5955L416.195 595.5955L422.42 595.5955C 422.5699 592.6329 422.9849 590.3158 424.5065 590.3158C 425.1751 590.3158 425.3826 590.8576 425.4518 592.2178C 425.2673 592.3331 425.0253 592.5406 424.8524 592.7136C 424.8408 591.7568 424.7717 591.1573 424.5526 591.1573C 423.6535 591.1573 423.3422 593.7164 423.2615 596.3448L423.2615 596.3448L416.195 596.3448zM424.1953 597.244L424.1953 597.9702L417.3478 597.9702L417.3478 597.244L424.1953 597.244zM425.0483 598.8117L425.0483 599.5495L425.0483 599.5495L417.7859 599.5495C 417.9473 599.9069 418.0971 600.2757 418.2239 600.6446L418.2239 600.6446L417.3824 600.8636C 416.8291 599.1921 415.8838 597.6128 414.7771 596.5984C 414.9731 596.4946 415.3651 596.2295 415.5264 596.0797C 416.2181 596.7944 416.8867 597.7396 417.44 598.8117L417.44 598.8117L425.0483 598.8117z" stroke="none" fill="#626262" fill-rule="nonzero" /><path id="80" transform="matrix(1 0 0 -1 0 842)" d="M471.2513 598.0048L471.2513 598.8463L471.2513 598.8463L466.4443 598.8463L466.4443 598.8463L467.2397 599.1921C 467.0783 599.6647 466.721 600.3564 466.4097 600.8982L466.4097 600.8982L465.5912 600.5754C 465.891 600.0452 466.2253 599.3074 466.3751 598.8463L466.3751 598.8463L461.3375 598.8463L461.3375 598.8463L461.3375 598.0048L461.3375 598.0048L464.45 598.0048C 464.3232 595.3765 464.0235 592.4254 461.0839 590.9614C 461.3029 590.7999 461.5681 590.5002 461.7064 590.2697C 463.8736 591.4224 464.7382 593.3245 465.1071 595.3534L465.1071 595.3534L469.2109 595.3534C 469.015 592.7596 468.796 591.653 468.4501 591.3533C 468.3233 591.2495 468.1735 591.2265 467.9083 591.2265C 467.6086 591.2265 466.8017 591.238 465.9832 591.3072C 466.1446 591.0766 466.2599 590.7308 466.2829 590.4772C 467.0553 590.4196 467.8046 590.408 468.208 590.4311C 468.6576 590.4656 468.9228 590.5463 469.1994 590.8345C 469.649 591.2841 469.8795 592.5291 470.0986 595.7684C 470.1216 595.8952 470.1331 596.1834 470.1331 596.1834L470.1331 596.1834L465.2339 596.1834C 465.3146 596.7944 465.3607 597.4053 465.3953 598.0048L465.3953 598.0048L471.2513 598.0048z" stroke="none" fill="#626262" fill-rule="nonzero" /><path id="87" transform="matrix(1 0 0 -1 0 842)" d="M93.41947 573.2894L93.41947 572.5401L93.41947 572.5401L99.64443 572.5401C 99.79429 569.5775 100.2093 567.2604 101.7309 567.2604C 102.3996 567.2604 102.607 567.8022 102.6762 569.1625C 102.4918 569.2778 102.2497 569.4853 102.0768 569.6582C 102.0652 568.7014 101.9961 568.1019 101.7771 568.1019C 100.8779 568.1019 100.5666 570.6611 100.486 573.2894L100.486 573.2894L93.41947 573.2894zM101.4197 574.1886L101.4197 574.9148L94.57224 574.9148L94.57224 574.1886L101.4197 574.1886zM102.2727 575.7563L102.2727 576.4941L102.2727 576.4941L95.0103 576.4941C 95.17168 576.8515 95.32155 577.2203 95.44835 577.5892L95.44835 577.5892L94.60683 577.8083C 94.0535 576.1368 93.10823 574.5574 92.00157 573.543C 92.19754 573.4393 92.58948 573.1741 92.75087 573.0243C 93.44253 573.739 94.11114 574.6843 94.66447 575.7563L94.66447 575.7563L102.2727 575.7563z" stroke="none" fill="#626262" fill-rule="nonzero" /><path id="88" transform="matrix(1 0 0 -1 0 842)" d="M114.1232 573.9349L107.6677 573.9349L107.6677 573.9349L107.6677 573.1165L107.6677 573.1165L111.518 573.1165L111.518 573.1165L111.518 568.3671C 111.518 568.1711 111.4488 568.125 111.2298 568.1135C 111.0108 568.1019 110.2499 568.1019 109.4315 568.125C 109.5583 567.8829 109.6735 567.5256 109.7081 567.295C 110.8378 567.295 111.4834 567.295 111.8753 567.4218C 112.2558 567.5602 112.3826 567.8253 112.3826 568.3556L112.3826 568.3556L112.3826 573.1165L112.3826 573.1165L114.1232 573.1165L114.1232 573.1165L114.1232 573.9349zM106.7109 575.3298C 105.9155 574.0272 104.6705 572.7015 103.4832 571.86C 103.6561 571.6871 103.9558 571.3182 104.0826 571.1453C 104.5091 571.4796 104.9472 571.8946 105.3852 572.3441L105.3852 572.3441L105.3852 567.2258L105.3852 567.2258L106.2383 567.2258L106.2383 567.2258L106.2383 573.2894C 106.7109 573.8542 107.149 574.4422 107.5063 575.0301L107.5063 575.0301L106.7109 575.3298zM106.2383 577.7852C 105.6619 576.9667 104.5553 575.9293 103.5984 575.2837C 103.7483 575.1223 103.9789 574.788 104.1057 574.6036C 105.1316 575.3298 106.3075 576.448 107.0568 577.4625L107.0568 577.4625L106.2383 577.7852zM113.7889 577.082L108.1634 577.082L108.1634 576.2751L113.7889 576.2751L113.7889 577.082z" stroke="none" fill="#626262" fill-rule="nonzero" /><path id="92" transform="matrix(1 0 0 -1 0 842)" d="M155.5423 568.4247L155.5423 570.0156L159.5309 570.0156L159.5309 570.8571L155.5423 570.8571L155.5423 572.1482L159.1504 572.1482L159.1504 577.3356L151.0695 577.3356L151.0695 572.1482L154.5855 572.1482L154.5855 570.8571L150.7006 570.8571L150.7006 570.0156L154.5855 570.0156L154.5855 568.4247L149.9283 568.4247L149.9283 567.5832L160.1534 567.5832L160.1534 568.4247L155.5423 568.4247zM158.2397 572.9551L155.4846 572.9551L155.4846 574.373L158.2397 574.373L158.2397 572.9551zM158.2397 575.1339L155.4846 575.1339L155.4846 576.5287L158.2397 576.5287L158.2397 575.1339zM151.9456 576.5287L154.6431 576.5287L154.6431 575.1339L151.9456 575.1339L151.9456 576.5287zM151.9456 574.373L154.6431 574.373L154.6431 572.9551L151.9456 572.9551L151.9456 574.373z" stroke="none" fill="#626262" fill-rule="nonzero" /><path id="94" transform="matrix(1 0 0 -1 0 842)" d="M172.8684 573.0934L172.8684 572.1597L183.3356 572.1597L183.3356 573.0934L172.8684 573.0934z" stroke="none" fill="#626262" fill-rule="nonzero" /><path id="108" transform="matrix(1 0 0 -1 0 842)" d="M344.4466 574.9494L344.4466 575.791L344.4466 575.791L339.6396 575.791L339.6396 575.791L340.435 576.1368C 340.2736 576.6094 339.9163 577.301 339.605 577.8428L339.605 577.8428L338.7865 577.5201C 339.0862 576.9898 339.4206 576.252 339.5704 575.791L339.5704 575.791L334.5328 575.791L334.5328 575.791L334.5328 574.9494L334.5328 574.9494L337.6453 574.9494C 337.5185 572.3211 337.2188 569.37 334.2792 567.906C 334.4982 567.7446 334.7634 567.4449 334.9017 567.2143C 337.0689 568.3671 337.9335 570.2692 338.3024 572.298L338.3024 572.298L342.4062 572.298C 342.2103 569.7043 341.9912 568.5977 341.6454 568.2979C 341.5186 568.1942 341.3687 568.1711 341.1036 568.1711C 340.8039 568.1711 339.9969 568.1826 339.1785 568.2518C 339.3399 568.0212 339.4551 567.6754 339.4782 567.4218C 340.2505 567.3642 340.9998 567.3527 341.4033 567.3757C 341.8529 567.4103 342.118 567.491 342.3947 567.7792C 342.8443 568.2288 343.0748 569.4738 343.2939 572.713C 343.3169 572.8398 343.3284 573.1281 343.3284 573.1281L343.3284 573.1281L338.4292 573.1281C 338.5099 573.739 338.556 574.35 338.5906 574.9494L338.5906 574.9494L344.4466 574.9494z" stroke="none" fill="#626262" fill-rule="nonzero" /></g><g clip-path="url(#7)"><path id="118" transform="matrix(1 0 0 -1 0 842)" d="M36.11459 812.6198L555.0458 812.6198C 557.1678 812.6198 558.8883 810.8995 558.8883 808.7772L558.8883 808.7772L558.8883 713.9139C 558.8883 711.7918 557.1678 710.0713 555.0458 710.0713L555.0458 710.0713L36.11435 710.0713C 33.99205 710.0713 32.27178 711.7918 32.27178 713.9139L32.27178 713.9139L32.27178 808.7772C 32.27178 810.8995 33.99205 812.6198 36.11435 812.6198L36.11435 812.6198L36.11459 812.6198z" stroke="none" fill="#FFFFFF" fill-rule="evenodd" /><path id="119" transform="matrix(1 0 0 -1 0 842)" d="M36.11459 812.6198L555.0458 812.6198C 557.1678 812.6198 558.8883 810.8995 558.8883 808.7772L558.8883 808.7772L558.8883 713.9139C 558.8883 711.7918 557.1678 710.0713 555.0458 710.0713L555.0458 710.0713L36.11435 710.0713C 33.99205 710.0713 32.27178 711.7918 32.27178 713.9139L32.27178 713.9139L32.27178 808.7772C 32.27178 810.8995 33.99205 812.6198 36.11435 812.6198L36.11435 812.6198L36.11459 812.6198z" stroke="#000000" stroke-width="1.921283" stroke-linecap="round" fill="none" /></g><g clip-path="url(#8)"><path id="120" transform="matrix(1 0 0 -1 0 842)" d="M71.32761 545.929L155.4793 545.929C 157.0709 545.929 158.3612 544.6385 158.3612 543.047L158.3612 543.047L158.3612 514.3406C 158.3612 512.7491 157.0709 511.4587 155.4793 511.4587L155.4793 511.4587L84.89475 511.4587L84.89475 511.4587L74.68986 504.4941L74.68986 504.4941L74.68722 511.4587L74.68722 511.4587L71.32738 511.4587C 69.73583 511.4587 68.44545 512.7491 68.44545 514.3406L68.44545 514.3406L68.44545 543.047C 68.44545 544.6385 69.73583 545.929 71.32738 545.929L71.32738 545.929L71.32761 545.929z" stroke="none" fill="#E8F8D2" fill-rule="evenodd" /></g><g clip-path="url(#9)"></g><g clip-path="url(#10)"><path id="231" transform="matrix(1 0 0 -1 0 842)" d="M71.08745 672.2533L155.2391 672.2533C 156.8307 672.2533 158.1211 670.9629 158.1211 669.3713L158.1211 669.3713L158.1211 640.665C 158.1211 639.0735 156.8307 637.7831 155.2391 637.7831L155.2391 637.7831L84.65459 637.7831L84.65459 637.7831L74.44969 630.8184L74.44969 630.8184L74.44705 637.7831L74.44705 637.7831L71.08721 637.7831C 69.49567 637.7831 68.20528 639.0735 68.20528 640.665L68.20528 640.665L68.20528 669.3713C 68.20528 670.9629 69.49567 672.2533 71.08721 672.2533L71.08721 672.2533L71.08745 672.2533z" stroke="none" fill="#E8F8D2" fill-rule="evenodd" /></g><g clip-path="url(#11)"></g><g clip-path="url(#12)"><path id="264" transform="matrix(1 0 0 -1 0 842)" d="M198.5667 742.9353L202.4945 746.7361L202.4945 746.7361L198.567 750.5374L198.567 750.5374L198.567 742.9353L198.567 742.9353L198.5667 742.9353zM211.8973 742.5972L208.0461 746.3245L208.0461 746.3245L205.8549 744.2036C 205.6514 744.0067 205.2953 744.0067 205.0919 744.2036L205.0919 744.2036L202.9009 746.3242L202.9009 746.3242L199.0497 742.5974L199.0497 742.5974L211.897 742.5974L211.897 742.5974L211.8973 742.5972zM205.4737 744.6584L211.9115 750.8894L211.9115 750.8894L199.0353 750.8894L199.0353 750.8894L205.4733 744.6584L205.4733 744.6584L205.4737 744.6584zM212.3807 750.5376L208.4527 746.7361L208.4527 746.7361L212.3807 742.9351L212.3807 742.9351L212.3807 750.5376L212.3807 750.5376L212.3807 750.5376zM212.9691 750.9562L212.9691 742.5304C 212.9683 742.4819 212.9603 742.4348 212.9451 742.3887L212.9451 742.3887L213.0366 742.3001L213.0366 742.3001L212.7381 742.1077C 212.7129 742.0914 212.6845 742.0823 212.6574 742.0705L212.6574 742.0705L212.649 742.0667C 212.5854 742.0389 212.5188 742.0242 212.4494 742.0227L212.4494 742.0227L198.4978 742.0227C 198.4277 742.0242 198.3607 742.0391 198.2965 742.0674C 198.2958 742.0674 198.2953 742.0679 198.2946 742.0681C 198.2651 742.0803 198.2346 742.0907 198.2077 742.1082L198.2077 742.1082L197.913 742.3027L197.913 742.3027L198.0019 742.389C 197.9869 742.435 197.979 742.4822 197.9783 742.5306L197.9783 742.5306L197.9783 750.9562C 197.9783 751.0018 197.9867 751.045 197.9985 751.0871L197.9985 751.0871L197.9144 751.1685L197.9144 751.1685L198.1899 751.3654C 198.213 751.3818 198.2394 751.3901 198.2644 751.4026C 198.2764 751.4084 198.2874 751.4154 198.2999 751.4204C 198.3273 751.4315 198.3551 751.4394 198.384 751.4456C 198.3955 751.4481 198.4073 751.4492 198.4193 751.4509C 198.4457 751.455 198.4707 751.463 198.4978 751.463L198.4978 751.463L212.4494 751.463C 212.4763 751.463 212.5018 751.455 212.528 751.4509C 212.54 751.4492 212.552 751.4483 212.5633 751.4456C 212.5921 751.4394 212.6199 751.4312 212.6473 751.4204C 212.6598 751.4154 212.6709 751.4084 212.6826 751.4026C 212.7076 751.3901 212.7343 751.3818 212.7576 751.3652L212.7576 751.3652L213.0325 751.1683L213.0325 751.1683L212.9487 751.0873C 212.9607 751.0453 212.9691 751.0018 212.9691 750.9562L212.9691 750.9562L212.9691 750.9562z" stroke="none" fill="#282828" fill-rule="evenodd" /></g><g clip-path="url(#13)"><path id="265" transform="matrix(1 0 0 -1 0 842)" d="M387.9384 740.8935C 386.9544 742.0198 383.4649 746.1669 383.4649 748.3384C 383.4649 750.8239 385.4715 752.8458 387.9384 752.8458C 390.4048 752.8458 392.4114 750.8236 392.4114 748.3384C 392.4114 746.1667 388.9223 742.0196 387.9384 740.8932L387.9384 740.8932L387.9384 740.8935zM387.9384 753.5441C 385.0898 753.5441 382.7718 751.2089 382.7718 748.3387C 382.7718 745.5528 387.4826 740.3533 387.6831 740.1334L387.6831 740.1334L387.9384 739.8533L387.9384 739.8533L388.1934 740.1334C 388.3944 740.3531 393.104 745.553 393.104 748.3384C 393.104 751.2086 390.7869 753.5439 387.9381 753.5439L387.9381 753.5439L387.9384 753.5441zM389.1853 747.3511C 389.0035 747.1848 388.7968 747.0599 388.565 746.9763C 388.3333 746.8926 388.0943 746.8568 387.8482 746.8688C 387.6021 746.8807 387.3678 746.9395 387.1453 747.0452C 386.9227 747.1509 386.729 747.2953 386.5642 747.4784C 386.218 747.861 386.0583 748.31 386.0848 748.8253C 386.1077 749.3405 386.3098 749.7717 386.691 750.119C 387.0688 750.4674 387.5144 750.6286 388.0277 750.6024C 388.5412 750.5786 388.9692 750.3751 389.3119 749.9919C 389.9997 749.2289 389.9425 748.0443 389.1853 747.3511L389.1853 747.3511L389.1853 747.3511zM388.0611 751.2999C 387.3762 751.3292 386.7292 751.0967 386.2251 750.636C 385.7016 750.1589 385.4241 749.5665 385.3927 748.8589C 385.3565 748.1512 385.576 747.5346 386.051 747.0089C 386.5554 746.4478 387.1848 746.1677 387.9393 746.1683C 388.5508 746.1683 389.1642 746.3885 389.6512 746.834C 390.6911 747.7861 390.7692 749.4129 389.8251 750.4612C 389.3543 750.9874 388.7663 751.2669 388.0611 751.2999L388.0611 751.2999L388.0611 751.2999z" stroke="none" fill="#282828" fill-rule="evenodd" /></g><g clip-path="url(#14)"></g><g clip-path="url(#15)"><path id="290" transform="matrix(1 0 0 -1 0 842)" d="M281.4679 187.4978L276.1844 187.4978M473.1158 187.4978L437.0572 187.7411M420.0404 187.4978L288.6126 187.7411" stroke="#000000" stroke-width="0.9606413" stroke-linecap="round" fill="none" /></g><g clip-path="url(#16)"><path id="291" transform="matrix(1 0 0 -1 0 842)" d="M560.0539 463.8864L560.0539 475.2673M560.0541 250.6449L560.2941 382.5392M560.0541 401.8135L560.2974 453.7331" stroke="#000000" stroke-width="0.9606413" stroke-linecap="round" fill="none" /></g><g clip-path="url(#17)"><g transform="matrix(0.2401603 0 0 0.2401603 493.2893 605.5248)"><g transform="matrix(1 0 0 1 0 0)"><image x="0" y="0" xlink:href="img_02.png" width="279" height="211" /></g></g></g><g clip-path="url(#18)"><path id="293" transform="matrix(1 0 0 -1 0 842)" d="M524.6302 717.0359C 524.9327 717.0359 525.2238 716.978 525.5032 716.8623C 525.7828 716.7465 526.0295 716.5817 526.2435 716.3677C 526.4574 716.1537 526.6222 715.907 526.738 715.6275C 526.8538 715.348 526.9117 715.0569 526.9117 714.7544L526.9117 714.7544L526.9117 693.8605C 526.9117 693.5579 526.8538 693.2669 526.738 692.9874C 526.6222 692.7079 526.4574 692.4611 526.2435 692.2472C 526.0295 692.0333 525.7828 691.8684 525.5032 691.7526C 525.2238 691.6368 524.9327 691.579 524.6302 691.579C 524.3276 691.579 524.0366 691.6368 523.7571 691.7526C 523.4775 691.8684 523.2308 692.0333 523.0169 692.2472C 522.8029 692.4611 522.6381 692.7079 522.5223 692.9874C 522.4065 693.2669 522.3487 693.5579 522.3487 693.8605L522.3487 693.8605L522.3487 714.7544C 522.3487 715.0569 522.4066 715.348 522.5223 715.6275C 522.6382 715.907 522.803 716.1537 523.017 716.3677C 523.2308 716.5817 523.4776 716.7465 523.7571 716.8623C 524.0367 716.978 524.3277 717.0359 524.6302 717.0359zM60.88064 717.0359C 61.18319 717.0359 61.47422 716.978 61.75374 716.8623C 62.03326 716.7465 62.27998 716.5817 62.49392 716.3677C 62.70786 716.1537 62.87271 715.907 62.98849 715.6275C 63.10427 715.348 63.16216 715.0569 63.16216 714.7544L63.16216 714.7544L63.16216 693.8605C 63.16216 693.5579 63.10427 693.2669 62.98849 692.9874C 62.87271 692.7079 62.70786 692.4611 62.49392 692.2472C 62.27998 692.0333 62.03326 691.8684 61.75374 691.7526C 61.47422 691.6368 61.18319 691.579 60.88064 691.579C 60.57809 691.579 60.28706 691.6368 60.00754 691.7526C 59.72802 691.8684 59.48129 692.0333 59.26736 692.2472C 59.05342 692.4611 58.88857 692.7079 58.77279 692.9874C 58.65701 693.2669 58.59912 693.5579 58.59912 693.8605L58.59912 693.8605L58.59912 714.7544C 58.59912 715.0569 58.65701 715.348 58.77279 715.6275C 58.88857 715.907 59.05342 716.1537 59.26736 716.3677C 59.48129 716.5817 59.72802 716.7465 60.00754 716.8623C 60.28706 716.978 60.57809 717.0359 60.88064 717.0359z" stroke="none" fill="#FFFFFF" fill-rule="evenodd" /><path id="294" transform="matrix(1 0 0 -1 0 842)" d="M524.6302 717.0359C 524.9327 717.0359 525.2238 716.978 525.5032 716.8623C 525.7828 716.7465 526.0295 716.5817 526.2435 716.3677C 526.4574 716.1537 526.6222 715.907 526.738 715.6275C 526.8538 715.348 526.9117 715.0569 526.9117 714.7544L526.9117 714.7544L526.9117 693.8605C 526.9117 693.5579 526.8538 693.2669 526.738 692.9874C 526.6222 692.7079 526.4574 692.4611 526.2435 692.2472C 526.0295 692.0333 525.7828 691.8684 525.5032 691.7526C 525.2238 691.6368 524.9327 691.579 524.6302 691.579C 524.3276 691.579 524.0366 691.6368 523.7571 691.7526C 523.4775 691.8684 523.2308 692.0333 523.0169 692.2472C 522.8029 692.4611 522.6381 692.7079 522.5223 692.9874C 522.4065 693.2669 522.3487 693.5579 522.3487 693.8605L522.3487 693.8605L522.3487 714.7544C 522.3487 715.0569 522.4066 715.348 522.5223 715.6275C 522.6382 715.907 522.803 716.1537 523.017 716.3677C 523.2308 716.5817 523.4776 716.7465 523.7571 716.8623C 524.0367 716.978 524.3277 717.0359 524.6302 717.0359zM60.88064 717.0359C 61.18319 717.0359 61.47422 716.978 61.75374 716.8623C 62.03326 716.7465 62.27998 716.5817 62.49392 716.3677C 62.70786 716.1537 62.87271 715.907 62.98849 715.6275C 63.10427 715.348 63.16216 715.0569 63.16216 714.7544L63.16216 714.7544L63.16216 693.8605C 63.16216 693.5579 63.10427 693.2669 62.98849 692.9874C 62.87271 692.7079 62.70786 692.4611 62.49392 692.2472C 62.27998 692.0333 62.03326 691.8684 61.75374 691.7526C 61.47422 691.6368 61.18319 691.579 60.88064 691.579C 60.57809 691.579 60.28706 691.6368 60.00754 691.7526C 59.72802 691.8684 59.48129 692.0333 59.26736 692.2472C 59.05342 692.4611 58.88857 692.7079 58.77279 692.9874C 58.65701 693.2669 58.59912 693.5579 58.59912 693.8605L58.59912 693.8605L58.59912 714.7544C 58.59912 715.0569 58.65701 715.348 58.77279 715.6275C 58.88857 715.907 59.05342 716.1537 59.26736 716.3677C 59.48129 716.5817 59.72802 716.7465 60.00754 716.8623C 60.28706 716.978 60.57809 717.0359 60.88064 717.0359z" stroke="#000000" stroke-width="1.921283" stroke-linecap="round" fill="none" /></g><g clip-path="url(#19)"><path id="295" transform="matrix(1 0 0 -1 0 842)" d="M210.7339 777.4719C 211.0221 777.4719 211.2623 777.707 211.2623 778.0507C 211.2623 778.3948 211.0221 778.6462 210.7339 778.6462C 210.4458 778.6462 210.2056 778.3948 210.2056 778.0507C 210.2056 777.707 210.4458 777.4719 210.7339 777.4719zM207.84 777.4719C 208.1282 777.4719 208.3684 777.707 208.3684 778.0507C 208.3684 778.3948 208.1282 778.6462 207.84 778.6462C 207.5518 778.6462 207.3117 778.3948 207.3117 778.0507C 207.3117 777.707 207.5518 777.4719 207.84 777.4719zM204.9461 777.4719C 205.2343 777.4719 205.4744 777.707 205.4744 778.0507C 205.4744 778.3948 205.2343 778.6462 204.9461 778.6462C 204.6579 778.6462 204.4177 778.3948 204.4177 778.0507C 204.4177 777.707 204.6579 777.4719 204.9461 777.4719zM207.7041 783.0801C 204.2748 783.0801 201.4849 780.8881 201.4849 778.1938C 201.4849 776.7278 202.3147 775.3514 203.7616 774.417L203.7616 774.417L203.8978 774.3293L203.8978 774.3293L203.9218 774.1708C 203.9429 774.0347 203.9535 773.8951 203.9535 773.7554C 203.9535 773.0065 203.5241 772.2753 202.7974 771.739C 204.0486 771.8432 205.3126 772.1804 206.42 773.2664L206.42 773.2664L206.5463 773.3898L206.5463 773.3898L206.723 773.3682C 207.0504 773.3276 207.3804 773.307 207.7038 773.307C 211.1329 773.307 213.923 775.4994 213.923 778.1938C 213.923 780.8881 211.1331 783.0801 207.7041 783.0801zM201.6333 770.9727L201.6333 771.9035L201.6333 771.9035L201.8382 772.0017C 202.6802 772.4061 203.2244 773.0944 203.2244 773.7551C 203.2244 773.8075 203.222 773.8596 203.2181 773.9117C 201.6508 774.9792 200.7555 776.5309 200.7555 778.1938C 200.7555 781.2839 203.8728 783.7982 207.7041 783.7982C 211.5358 783.7982 214.6529 781.2839 214.6529 778.1938C 214.6529 775.1029 211.5356 772.5887 207.7041 772.5887C 207.408 772.5887 207.1073 772.6045 206.8073 772.6355C 205.3102 771.2454 203.6173 771.0168 202.0065 770.9808L202.0065 770.9808L201.6333 770.9727L201.6333 770.9727L201.6333 770.9727z" stroke="none" fill="#282828" fill-rule="evenodd" /></g><g clip-path="url(#20)"></g></g></g></svg>